<?xml version="1.0" encoding="UTF-8"?>
<svg id="_レイヤー_2" data-name="レイヤー 2" xmlns="http://www.w3.org/2000/svg" viewBox="0 0 300.32 65.03">
  <defs>
    <style>
      .cls-1 {
        fill: #fff;
      }
    </style>
  </defs>
  <g id="_レイヤー_1-2" data-name="レイヤー 1">
    <path class="cls-1" d="m52.35,43.17c-2.11,2.34-3.84,5.84-5.45,9.12-5.73-2.28-10.79-6.23-13.8-9.68-2.23-2.56-3.51-4.73-4.67-6.68-2.56,10.01-10.01,13.58-26.59,16.64l-.45-.44c11.07-3.95,17.92-13.13,18.64-26.09.06-1.11.11-2.23.17-3.34H3l-.28-.83h17.47c.28-6.18.39-11.63.06-16.02H.28l-.28-.89h49.64c1.06-.78,4.01-3.56,5.01-4.95,1.45,1.56,4.67,4.67,5.79,5.34-1.67,1.11-4.62,3.78-5.29,4.51-1.11-1.22-3.39-3-5.12-4.01h-19.82c-.28,2.06-.17,7.84-.22,16.02h9.18c1.06-.83,4.01-3.56,5.01-5.01,1.39,1.56,4.67,4.67,5.79,5.4-1.67,1.11-4.67,3.78-5.29,4.51-.89-1-3-2.73-5.12-4.06h-8.29c1,4.28,3.34,7.9,7.46,12.41,3.73,3.73,8.57,6.4,13.63,8.07Z"/>
    <path class="cls-1" d="m68.98,15.5c-.48-.49-1.27-1-2.2-1.58,2.56-.56,4.4-1,7.23-2.39,2.34,1.39,5.95,2.45,9.79,3.12-1,.44-1.78.89-2.45,1.39,5.73,3.73,12.57,6.4,21.87,7.29-2.11,3.23-3.56,5.68-4.73,8.4-3.95-.67-7.01-1.5-9.57-2.5.61.56,1.22,1.06,1.84,1.45-1.67,1.11-3,2.34-4.45,3.73-1.11-1.28-2.56-2.45-4.28-3.51,0,0-17.64,0-17.64,0l-.28-.83h17.8c1.17-1.06,1.95-1.67,2.84-2.73-.39-.17-.72-.39-1.06-.56-3-1.72-5.12-3.56-7.4-5.01-.11.17-.28.33-.44.56-5.67,6.62-11.68,9.01-26.04,9.4l-.17-.5c8.1-3.1,16.14-9.96,19.41-15,.15-.23.12-.53-.08-.73Zm30.73,24.02c-.17,1.95-.11,12.85.22,16.19.28,1.06,1,2.06,2.17,3-2.28,1.06-4.17,1.67-5.95,3.39-2-2.11-3.84-2.56-4.9-2.56s-2.11.7-3.46,1.66c-.32.23-.76.19-1.04-.08h0c-.42-.4-.29-1.09.23-1.33,3.3-1.55,3.96-3.75,4.26-6.32.33-5.56.5-11.63.22-16.13,0,0-5.45,0-5.45,0-.44,0-.82.78-.82.78l-.96,17.54-.09,9.21c0,.16-.21.2-.28.06l-5.99-12.41-1.1-12.96s-.95-1.39-2.06-2c-.61.5-1,1.06-1.22,1.56-.22,4.06-.22,16.8.28,20.31,0,0-7.25,0-7.25,0-.45,0-.82-.37-.82-.82v-.09c0-.45-.37-.82-.82-.82h-3.8v4.34h-8.12c.28-7.07.17-16.25.11-21.48-.17-.78-1.78-2.11-2.89-2.45,2-1.33,4.12-3.39,5.06-4.73,1.72,1.11,4.12,2.45,6.18,3.06.02,0,3.39,0,3.39,0,1.11-.61,2.95-1.95,4.56-3.78,1.95,1.78,3.51,2.89,5.06,3.78,1.89-1,3.45-2.23,4.95-3.78,1.72,1.73,4.12,2.95,6.73,3.78h4.34c1.89-1.28,4.01-3.06,5.17-4.56,2.17,2.17,4.01,3.5,6.79,4.95-.83.44-2,1.39-2.73,2.67Zm-33.99,17.3v-19.47h-4.62v19.47h4.62Z"/>
    <path class="cls-1" d="m130.24,41.84c-2.83.58-5.9,1.11-8.83,1.61l-.18-.47c5.7-1.46,9.73-3.77,9.73-13.12,0-8.5-3.86-9.79-7.22-9.79-5.44,0-7.19,2.28-7.36,10.67-.09,4.97.99,9.7,2.83,9.7,1.61,0,1.81-9.15,1.49-15.84.06-.76-1.14-1.29-1.84-1.55,1.49-.56,2.81-1.34,4-2.28,1.2.96,3.13,1.78,4.59,2.28-.64.41-1.55.96-1.61,1.84-.12,3.3-.09,4.41-.15,6.49-.12,5.82-.38,7.8-4.21,9.15-1.67.61-4.68,1.72-6.4,2.45-.7-.7-1.96-2.28-2.43-3.3-.94-1.93-1.55-5.35-1.49-8.68.15-6.46,2.16-8.83,3.19-10.11,2.28-.47,5.03-1.32,9.47-1.32,3.48,0,6.52.53,8.53.73,1.46,1.46,3.92,2.43,3.92,10.55,0,5.41-1.14,10.02-6.05,10.99Z"/>
    <path class="cls-1" d="m142.08,30.52c.36-5.03.5-14.09.41-19.39-.14-1.22-1.99-2.26-3.13-2.72,2.36-1.04,4.94-2.45,6.61-4.08,2.08,1.72,5.3,3.26,8.15,4.21-1.09.68-2.45,1.54-2.63,2.72-.59,5.66-.59,13.91-.41,19.25h-9.01Zm8.33,12.82l-.18-.54c10.78-3.67,13.32-8.88,13.82-18.21.27-5.16.18-11.19-.18-14.99-.09-1.22-1.86-1.81-2.9-2.26,2.54-1.27,4.44-1.99,6.21-3.94,2.72,1.54,5.48,2.4,8.65,3.17-1.54,1.18-2.31,2.22-2.49,3.35-.14,3.53-.09,12.82-.05,16.13.36,11.87-3.35,14.49-22.87,17.3Z"/>
    <path class="cls-1" d="m203.96,26.94c.59-2.99,1.04-8.24.91-11.6-.05-.91-.23-1.22-1.18-1.22h-16.71c-.18,3.53,0,9.42.09,12.55h-8.74c.27-2.49.14-6.98.14-9.56,0-1.36-1.13-2.08-2.63-2.9,2.04-1.13,3.85-2.76,5.57-4.76,1.86,1.68,4.08,2.94,6.25,3.94h3.85c.18-1.59.23-3.67.14-5.03-.14-1.22-1.5-1.77-2.63-2.17,2.54-.95,4.67-1.86,6.61-3.4,2.13,1.45,5.57,2.76,7.88,3.49-1.31.77-2.31,1.36-2.63,2.26-.09,1.27-.09,3.31-.05,4.85h3.17c1.63-1.18,3.76-2.9,5.39-4.71,2.08,1.9,4.48,4.17,7.07,5.48-1.18.59-1.95,1.49-2.49,2.49-.27,3.17-.82,8.79-.95,10.96-.72,9.78-4.26,13.45-24.69,15.54l-.36-.54c11.1-2.76,14.54-8.33,15.99-15.67Zm14.63-21.83c-1,.54-3.44,3.04-3.9,3.9-.45-.86-2.08-2.63-3.26-3.49-1.18.91-2.9,2.72-3.31,3.49-.54-1.09-2.99-3.4-4.12-3.94,1.09-.45,3.31-2.72,4.12-3.9.45.91,2.04,2.54,3.35,3.49,1.09-.82,2.54-2.49,3.22-3.49.54,1.09,2.54,3.08,3.9,3.94Z"/>
    <path class="cls-1" d="m240.03,41.14c-.91.59-1.88,1.46-2.68,2.34-.63-.66-1.78-1.53-2.65-2.09h-20.26l-.21-.52h10.18c.17-3.49.03-13.98-.03-17.54h-8.44l-.31-.52h17.12c.84-.66,1.81-1.74,2.51-2.79.66.87,2.09,2.44,2.93,3.07-.91.59-1.92,1.46-2.72,2.34-.59-.66-1.74-1.53-2.62-2.09h-2.72c-.28,3.59-.07,13.56.04,17.54h4.43c.84-.66,1.81-1.74,2.51-2.79.66.87,2.09,2.44,2.93,3.07Z"/>
    <path class="cls-1" d="m240.96,43.2c3.85-3.9,5.25-8.43,5.89-17.03.36-4.89.41-10.46-.09-14.54-.14-.91-1.77-1.77-2.81-2.22,2.49-1.18,4.98-2.67,6.57-4.26,2.13,1.68,4.89,3.13,7.79,4.17-1.63.91-2.26,1.54-2.54,2.67-.41,3.44-.36,11.55-.41,14.49,0,10.83-5.98,13.54-13.82,17.03l-.59-.32Zm41.31-26c-.36,3.67-.45,7.11-.5,10.06-.18,8.7-3.94,10.51-9.06,12.05-2.58.77-5.93,1.49-7.61,2.31-.77.41-1.09.59-2.26,1.4-1.68-1.99-3.44-2.94-5.48-4.17,1.72-1.63,2.13-2.54,2.36-5.25.36-5.03.14-18.93,0-24.05-.14-.91-1.63-1.77-2.76-2.17,2.35-1.09,4.85-2.72,6.52-4.35,2.08,1.72,4.98,3.31,7.79,4.26-1.09.68-2.49,1.9-2.76,2.9-.54,5.66-.36,15.04-.18,20.43.09,1.22.45,1.81,3.13,1,5.75-1.81,9.78-5.98,10.83-14.4h0Z"/>
    <path class="cls-1" d="m113.01,50.06c-.02-.09.03-.12.17-.12.66-.02,1.4-.02,2.06-.06.89-.06,1.25-.08,1.69-.09,1.01,0,1.91.11,2.84.72.63.4,1.07,1.19,1.07,1.89,0,1.3-1.01,1.88-1.56,2.21-.08.05-.11.17-.08.27.11.4.49,1.33,1.11,2.32.67,1.04,1.54,1.98,2.34,2.29.2.08.2.17.17.31-.02.12-.12.14-.31.14-1.22-.06-2.31-.4-3.24-1.3-.7-.67-1.13-1.43-1.57-2.44-.24-.52-.44-.82-1.07-.82-.27,0-.43,0-.6.05-.08.02-.14.15-.14.27,0,1.36.03,2.21.06,2.79.02.29.08.37.17.44.14.11.7.24,1.07.37.02.06-.03.27-.08.34-.02.03-.09.03-.17.03-.18,0-1.31-.03-2.15-.03-.66,0-.96.06-1.36.06-.23,0-.29,0-.31-.05-.05-.08-.09-.23-.08-.31.32-.11.69-.26.82-.4.18-.23.23-1.22.23-3.21v-1.95c0-1.02-.02-2.17-.03-2.66-.02-.52-.08-.55-1.02-.82l-.06-.24Zm3.95.17c-.27,0-.44.06-.69.17-.14.06-.23.15-.26.31-.06.47-.08,1.19-.09,2.52-.02,1.6-.02,1.65.11,1.68s.35.03.61.03c.78,0,1.3-.18,1.66-.63.32-.4.49-.95.49-1.74,0-1.34-.87-2.34-1.83-2.34Z"/>
    <path class="cls-1" d="m126.5,54.48c.58,0,1.05-.02,1.47-.03.89-.05,1.04-.23,1.39-.99.03-.08.24-.12.41-.08-.05.35-.12,1.08-.12,1.6.02.58.03.82.09,1.27-.03.03-.12.05-.24.05-.08.02-.14-.03-.18-.11-.05-.12-.18-.47-.29-.64-.12-.29-.35-.47-.92-.5-.4-.03-.79-.03-1.47-.03-.4,0-.55.01-.63.03-.06.02-.14.05-.17.12-.05.11-.09.96-.09,2.2,0,.85.02,1.21.11,1.39.18.34.81.4,1.54.4,1.86,0,2.5-.27,3.17-2.02.05-.03.23-.02.29,0t.05.14c-.06.95-.29,1.88-.49,2.3-.05.09-.09.12-.17.12-.11,0-.23,0-.7-.02-.44-.02-1.45-.03-2.66-.03-1.53,0-2.9.06-3.98.09-.06-.03-.06-.2-.03-.29.02-.08.03-.09.08-.11.69-.2.84-.26.85-.53.02-.18.11-1.25.11-2.73v-3.42c0-1.37-.05-1.83-.08-1.92-.03-.12-.05-.23-.2-.29-.17-.06-.4-.12-.82-.21-.03-.02-.05-.02-.03-.09l.03-.18s0-.08.09-.08h.43c.47,0,1.16.05,2.29.05h1.11c1.3,0,2.17-.09,3.08-.09.26,0,.34.02.38.08s.11.12.08.32c-.17.95-.18,1.54-.18,1.94-.32.02-.35-.03-.38-.14-.41-1.16-.67-1.63-1.33-1.63h-.92c-.76-.02-1.28.05-1.5.08-.21.03-.23.23-.23.53,0,1.16,0,2.14.02,3.14,0,.23.05.32.15.32h.58Z"/>
    <path class="cls-1" d="m132.5,53.62c0-1.16,0-2.09-.05-2.58-.05-.35-.11-.46-1.01-.72l.17-.32c.26-.03.61-.03.99-.05.43-.03,2.18-.11,2.73-.11.69,0,1.48.05,2.29.35.5.2,1.28.79,1.28,1.82,0,.55-.2,1.11-.79,1.56-.37.26-.76.4-.9.46-.08.05-.02.14.11.17,1.11.23,2.38,1.07,2.38,2.6,0,1.4-.96,2.26-2.21,2.67-.67.23-1.42.24-1.68.24s-2.05-.06-2.58-.06c-.66,0-1.39.08-1.59.08-.02,0-.15-.24-.14-.29.17-.09.35-.17.52-.27.31-.18.38-.31.41-.9.03-.96.06-1.79.06-2.3v-2.34Zm5.14,3.34c0-.82-.15-1.39-.58-1.8-.56-.53-1.21-.58-1.66-.58-.29,0-.81.02-.96.2-.08.08-.15.23-.15.82-.02,2.89.02,2.99.32,3.33.31.32.41.34.81.34,1.04,0,2.23-.78,2.23-2.3Zm-1.18-6.14c-.35-.34-.87-.52-1.3-.52-.14,0-.34.02-.55.09-.15.06-.17.09-.2.2-.02.14-.08.5-.08,1.21,0,.92.02,1.56.06,1.94,0,.26.09.32.27.35.15.03.4.05.63.05.2,0,.64-.03.92-.18.52-.34.72-.9.72-1.73,0-.64-.11-1.02-.47-1.4Z"/>
    <path class="cls-1" d="m144.13,54.48c.58,0,1.05-.02,1.47-.03.89-.05,1.04-.23,1.39-.99.03-.08.24-.12.41-.08-.05.35-.12,1.08-.12,1.6.02.58.03.82.09,1.27-.03.03-.12.05-.24.05-.08.02-.14-.03-.18-.11-.05-.12-.18-.47-.29-.64-.12-.29-.35-.47-.92-.5-.4-.03-.79-.03-1.47-.03-.4,0-.55.01-.63.03-.06.02-.14.05-.17.12-.05.11-.09.96-.09,2.2,0,.85.02,1.21.11,1.39.18.34.81.4,1.54.4,1.86,0,2.5-.27,3.17-2.02.05-.03.23-.02.29,0t.05.14c-.06.95-.29,1.88-.49,2.3-.05.09-.09.12-.17.12-.11,0-.23,0-.7-.02-.44-.02-1.45-.03-2.66-.03-1.53,0-2.9.06-3.98.09-.06-.03-.06-.2-.03-.29.02-.08.03-.09.08-.11.69-.2.84-.26.85-.53.02-.18.11-1.25.11-2.73v-3.42c0-1.37-.05-1.83-.08-1.92-.03-.12-.05-.23-.2-.29-.17-.06-.4-.12-.82-.21-.03-.02-.05-.02-.03-.09l.03-.18s0-.08.09-.08h.43c.47,0,1.16.05,2.29.05h1.11c1.3,0,2.17-.09,3.08-.09.26,0,.34.02.38.08s.11.12.08.32c-.17.95-.18,1.54-.18,1.94-.32.02-.35-.03-.38-.14-.41-1.16-.67-1.63-1.33-1.63h-.92c-.76-.02-1.28.05-1.5.08-.21.03-.23.23-.23.53,0,1.16,0,2.14.02,3.14,0,.23.05.32.15.32h.58Z"/>
    <path class="cls-1" d="m156.93,57.22s.08.14,0,.32c-.2.66-.34,1.27-.44,1.88-.03.18-.11.23-.26.26-.14.02-.32.02-.95.02s-1.33-.05-3.97-.05c-.87,0-1.65.08-1.98.11-.11.02-.18.02-.2-.02-.03-.08-.08-.26-.05-.31.56-.17,1.04-.37,1.11-.82.06-.31.09-.72.09-2.15v-3.1c0-1.27-.06-2.09-.11-2.56-.03-.23-.15-.37-1.07-.47-.03-.02-.09-.08-.06-.17l.06-.18c.02-.06.03-.06.09-.06.52.02,1.07.03,1.65.02.9,0,1.8-.06,2.47-.09.05.02.11.29.09.37-.78.2-1.19.32-1.27.81-.06.47-.09,1.27-.08,2.61l.02,2c.02,1.91.03,2.69.05,2.99.02.31.08.4.29.46.24.08.46.11,1.15.11,1.31,0,2.03-.14,2.46-.78.24-.31.35-.61.5-1.18.03-.09.05-.11.11-.11.08,0,.21.06.29.11Z"/>
    <path class="cls-1" d="m161.56,53.77q.23.56.85.85c.11.05.15.14.11.26-.03.11-.08.15-.21.23-.5.26-.56.35-.82.99-.02.08-.08.14-.17.14-.18,0-.35-.12-.4-.26-.14-.43-.29-.6-.69-.81-.2-.08-.29-.21-.29-.38,0-.08.03-.12.11-.15.47-.15.67-.24.87-.64.12-.23.24-.37.44-.37.08,0,.15.03.2.14Zm.01,3.66c.15.53.24.67.64.89.18.09.26.15.26.38,0,.09-.03.09-.12.14-.55.2-.55.21-.82.96-.05.08-.08.14-.23.14-.23,0-.35-.26-.55-.63-.17-.31-.35-.4-.58-.52-.14-.09-.23-.17-.23-.24,0-.09.15-.31.26-.32.52-.11.52-.14.78-.63.14-.23.23-.32.43-.32.09,0,.12.06.17.15Z"/>
    <path class="cls-1" d="m171.97,54.42c.79,0,1.69,0,1.86-.05.17-.03.2-.09.2-.61v-1.3c0-.72-.02-1.13-.03-1.4-.03-.53-.26-.63-1.1-.81-.03-.05.03-.34.09-.35.7,0,1.39.03,2.08.03.23,0,.58-.02.92-.05.35-.02.64-.02.7-.02.15-.02.21,0,.24.03.05.12.08.18.08.27-.82.17-1.04.32-1.08.79-.02.24-.06.93-.06,2.24v2.9c0,1.22.05,1.89.11,2.38.06.47.18.64,1.04.81.03.09-.06.37-.15.38-.72,0-1.45-.03-2.17-.03-1.14,0-1.4.05-1.62.05-.08,0-.11,0-.11-.05l.02-.31c.56-.11.84-.27.92-.43.08-.2.14-.78.14-2.14v-1.4c-.02-.12,0-.17-.11-.24-.06-.06-.18-.09-1.5-.09h-1.66c-1.16,0-1.59.02-2,.05-.18.06-.2.09-.2.46,0,1.05-.02,1.95.03,2.55.05.56.06.67.17.82.09.15.34.24.92.38.05.02.08.05.09.09,0,.09.02.26-.01.32-.73-.05-1.95-.08-2.63-.06-.64,0-1.01.05-1.3.06-.05,0-.08-.02-.11-.05-.05-.09-.08-.23-.06-.31.81-.31.95-.43.98-.72.02-.27.06-.95.06-2.32v-2.9c0-1.45-.03-2-.06-2.43-.03-.37-.09-.56-.95-.76-.03-.09-.02-.18.03-.27.02-.03.03-.05.12-.05.49,0,1.02.02,1.59.02.37,0,.73,0,1.1-.02.34,0,.69-.03,1.01-.05.05.03.06.29.03.37-.56.17-.89.26-.95.6-.03.27-.08.76-.08,2.21,0,1.3.05,1.37.31,1.37h3.11Z"/>
    <path class="cls-1" d="m181.35,54.48c.58,0,1.05-.02,1.47-.03.89-.05,1.04-.23,1.39-.99.03-.08.24-.12.41-.08-.05.35-.12,1.08-.12,1.6.02.58.03.82.09,1.27-.03.03-.12.05-.24.05-.08.02-.14-.03-.18-.11-.05-.12-.18-.47-.29-.64-.12-.29-.35-.47-.92-.5-.4-.03-.79-.03-1.47-.03-.4,0-.55.01-.63.03-.06.02-.14.05-.17.12-.05.11-.09.96-.09,2.2,0,.85.02,1.21.11,1.39.18.34.81.4,1.54.4,1.86,0,2.5-.27,3.18-2.02.05-.03.23-.02.29,0t.05.14c-.06.95-.29,1.88-.49,2.3-.05.09-.09.12-.17.12-.11,0-.23,0-.7-.02-.44-.02-1.45-.03-2.66-.03-1.53,0-2.9.06-3.98.09-.06-.03-.06-.2-.03-.29.02-.08.03-.09.08-.11.69-.2.84-.26.85-.53.02-.18.11-1.25.11-2.73v-3.42c0-1.37-.05-1.83-.08-1.92-.03-.12-.05-.23-.2-.29-.17-.06-.4-.12-.82-.21-.03-.02-.05-.02-.03-.09l.03-.18s0-.08.09-.08h.43c.47,0,1.16.05,2.29.05h1.11c1.3,0,2.17-.09,3.08-.09.26,0,.34.02.38.08.05.06.11.12.08.32-.17.95-.18,1.54-.18,1.94-.32.02-.35-.03-.38-.14-.41-1.16-.67-1.63-1.33-1.63h-.92c-.76-.02-1.28.05-1.5.08-.21.03-.23.23-.23.53,0,1.16,0,2.14.02,3.14,0,.23.05.32.15.32h.58Z"/>
    <path class="cls-1" d="m191.7,49.93c.44,1.31.76,2.15,1.31,3.56.52,1.33,1.56,3.83,1.79,4.34.44.95.61,1.33,1.48,1.54.03-.02-.08.32-.15.34-1.53-.02-1.82-.02-2.32-.02s-1.14.05-1.31.06c-.05,0-.09-.02-.11-.06-.01-.05-.09-.23-.08-.27.67-.23.73-.35.69-.78-.01-.34-.56-1.72-.69-2-.12-.27-.2-.34-.31-.34-.55-.02-2.18-.03-2.9.03-.23.02-.35.11-.44.35-.2.52-.58,1.36-.6,1.89-.02.43.24.58.93.79.11.03-.03.32-.11.34-.82-.02-1.39-.05-1.77-.05-.34,0-.64.03-.78.03-.06,0-.08-.02-.11-.06-.03-.06-.11-.24-.05-.27.7-.24.85-.67,1.31-1.69.35-.76,2.14-4.85,2.92-6.75.15-.37.27-.72.35-.89.03-.11.08-.18.14-.21.15-.08.38-.15.56-.15.14,0,.17.05.23.27Zm-1.21,5.74c.5,0,.78,0,1.19-.02.15,0,.23-.11.18-.23-.55-1.66-.87-2.47-1.18-3.3-.06-.11-.14-.11-.18-.02-.53,1.27-.76,1.76-1.36,3.36-.03.09.08.2.41.2h.93Z"/>
    <path class="cls-1" d="m206.9,50.39c-.18.05-.29.11-.43.24-.17.15-.47.73-.87,1.56-.41.81-2.06,4.49-2.81,6.37-.08.18-.15.34-.27.53-.14.2-.34.47-.49.73-.03.06-.11.11-.23.11-.15,0-.26-.05-.31-.14-.06-.08-.21-.38-.58-1.33-1.33-3.39-2.4-5.72-2.82-6.67-.61-1.33-.72-1.43-1.43-1.59l.08-.23c.03-.09.09-.12.17-.12.66.03,1.54.08,1.98.08.6,0,1.08-.03,1.56-.03.08,0,.11.03.08.18-.01.15-.05.18-.12.2-.66.15-.69.31-.55.75.12.43.27.81.96,2.44.64,1.54,1.13,2.67,1.69,3.91.03.09.15.09.21-.02.29-.52.98-2.14,1.79-4.15.24-.63.55-1.43.82-2.2.17-.52-.05-.64-.44-.7l-.52-.06c-.08,0-.11-.05-.08-.09.09-.24.12-.29.26-.29.46,0,1.13.06,1.53.06.23,0,.7-.05,1.05-.05.21,0,.26.14.27.31,0,.08-.03.11-.12.11l-.38.09Z"/>
    <path class="cls-1" d="m211.26,54.48c.58,0,1.05-.02,1.47-.03.89-.05,1.04-.23,1.39-.99.03-.08.24-.12.41-.08-.05.35-.12,1.08-.12,1.6.02.58.03.82.09,1.27-.03.03-.12.05-.24.05-.08.02-.14-.03-.18-.11-.05-.12-.18-.47-.29-.64-.12-.29-.35-.47-.92-.5-.4-.03-.79-.03-1.47-.03-.4,0-.55.01-.63.03-.06.02-.14.05-.17.12-.05.11-.09.96-.09,2.2,0,.85.01,1.21.11,1.39.18.34.81.4,1.54.4,1.86,0,2.5-.27,3.18-2.02.05-.03.23-.02.29,0t.05.14c-.06.95-.29,1.88-.49,2.3-.05.09-.09.12-.17.12-.11,0-.23,0-.7-.02-.44-.02-1.45-.03-2.66-.03-1.53,0-2.9.06-3.98.09-.06-.03-.06-.2-.03-.29.01-.08.03-.09.08-.11.69-.2.84-.26.85-.53.02-.18.11-1.25.11-2.73v-3.42c0-1.37-.05-1.83-.08-1.92-.03-.12-.05-.23-.2-.29-.17-.06-.4-.12-.82-.21-.03-.02-.05-.02-.03-.09l.03-.18s0-.08.09-.08h.43c.47,0,1.16.05,2.29.05h1.11c1.3,0,2.17-.09,3.08-.09.26,0,.34.02.38.08.05.06.11.12.08.32-.17.95-.18,1.54-.18,1.94-.32.02-.35-.03-.38-.14-.41-1.16-.67-1.63-1.33-1.63h-.92c-.76-.02-1.28.05-1.5.08s-.23.23-.23.53c0,1.16,0,2.14.01,3.14,0,.23.05.32.15.32h.58Z"/>
    <path class="cls-1" d="m215.96,49.87c.79.02,1.4.06,2.49.06.14,0,.21.02.27.06.08.06.12.12.12.2.02.23.72,1.05.9,1.24.75.79,2.72,2.76,5.4,5.25.05-.35.08-.76.08-2.26-.02-1.56-.05-2.75-.12-3.31-.05-.32-.12-.6-.38-.67-.2-.06-.69-.12-.78-.15-.08-.03-.11-.05-.11-.14v-.23c.5,0,1.02.02,1.54.02s1.11-.08,1.57-.08c.12,0,.21.02.23.06l.06.24c-.44.14-.66.2-.89.34-.34.21-.44.66-.52,2.35-.06,1.63-.08,2.75-.08,4.12,0,1.18.08,2.05.08,2.37,0,.24-.11.41-.4.63-.08.05-.14.03-.23-.11-.6-.89-1.94-2.38-3.5-3.94-1.69-1.69-2.78-2.79-3.66-3.65-.03.38-.08,1.53-.08,2.6,0,1.56-.01,3.17.12,3.72.12.5.7.63,1.33.76l.08.26s-.06.12-.11.12c-.75,0-1.34-.08-1.95-.08-.47,0-.93.03-1.16.06-.05-.12-.06-.23-.11-.35.9-.27.99-.41,1.07-.93.05-.37.14-1.36.15-3.24l.02-1.94c.01-1.8-.06-2.18-.26-2.44-.27-.37-.47-.44-1.02-.55-.12-.03-.17-.06-.17-.14v-.26Z"/>
    <path class="cls-1" d="m229.21,49.86c.14.53.21.7.64.92.18.11.27.17.27.4,0,.09-.03.11-.12.14-.56.2-.56.21-.85.98-.03.09-.09.15-.23.15-.24,0-.37-.26-.56-.64-.15-.31-.37-.41-.6-.55-.14-.06-.23-.15-.23-.23,0-.11.15-.31.27-.34.52-.11.52-.15.78-.64.12-.23.26-.34.43-.34.08,0,.15.03.2.15Z"/>
    <path class="cls-1" d="m233.9,59.36c-.46.26-1.19.43-1.72.43-.46,0-.99-.09-1.22-.15-.27-.09-.4-.09-.56.06-.03.02-.08,0-.12-.03-.08-.05-.09-.08-.08-.15.06-.64.11-1.07-.03-1.68,0-.09-.02-.17.03-.21.05-.03.14-.08.26-.11.24.44.41.75.79,1.22.35.46.89.66,1.22.66s.75-.32.75-.87c0-.61-.89-1.01-1.3-1.24-.43-.23-1.53-.75-1.54-1.8,0-.49.2-.93.67-1.3.41-.31,1.05-.5,1.51-.5.52,0,.85.06,1.05.05.14,0,.23,0,.29-.03.03-.02.06-.02.12.03.06.03.06.06.06.14.02.41.08.9.26,1.45.01.11-.06.21-.14.21-.14,0-.26-.08-.37-.24-.2-.29-.67-1.22-1.42-1.22-.34,0-.69.31-.69.84s.64.82,1.11,1.07c.55.29,1.83.85,1.83,2.08,0,.61-.23.99-.78,1.31Z"/>
    <path class="cls-1" d="m241.25,57.67c-.47-1.22-1.22-3.19-2.29-5.79-.52-1.27-.61-1.43-1.36-1.6-.08-.02-.11-.03-.11-.11.02-.06.06-.14.09-.18.03-.06.17-.09.32-.09.38,0,1.02.05,1.43.05.53,0,1.16-.03,1.79-.03.14,0,.18.23.18.29s-.03.08-.14.11c-.53.12-.66.21-.61.44.01.17.12.49.29.96.63,1.76,1.44,3.82,2.17,5.48.03.08.12.09.15.03.34-.72,1.16-2.92,1.6-4.12.05-.12.06-.24.01-.38-.44-1.21-.6-1.62-.72-1.86-.17-.37-.34-.46-.96-.58-.02,0-.05-.02-.03-.08.03-.24.14-.29.26-.29.27,0,.7.03,1.56.03.76,0,1.56-.05,1.73-.05.09.05.18.31.14.35-.79.17-.85.26-.67.79.58,1.72,1.33,3.91,2.18,6.08.05.11.17.09.2.05.52-1.1,2.15-5.42,2.26-6.3.05-.26-.08-.38-.27-.43-.31-.09-.55-.15-.67-.2-.08-.02-.09-.02-.09-.09,0-.09.05-.26.14-.26.26,0,1.01.05,1.47.05.56,0,.87-.02,1.18-.03.11,0,.21.02.26.15v.12s.01.08-.05.08c-.87.15-.92.34-1.56,1.74-.43.96-1.59,3.88-2.55,6.32-.11.27-.32.66-.7,1.36-.11.2-.27.23-.37.23-.14,0-.21-.09-.27-.32-.09-.29-.23-.69-.47-1.37-.26-.73-1.01-2.9-1.6-4.47-.4,1.04-1.13,2.76-1.92,4.73-.12.32-.27.63-.6,1.18-.12.21-.17.26-.21.27-.06.02-.15.02-.27.02-.06,0-.11-.05-.14-.15-.09-.23-.34-1.01-.76-2.11Z"/>
    <path class="cls-1" d="m257.45,50.23c-1.11.2-1.21.35-1.27.66-.05.23-.09.81-.09,2.4v2.5c0,1.24.03,2.46.12,2.95.06.24.12.35.34.41.09.03.4.09.63.15.09.02.11.03.11.09s-.03.24-.06.31c-1.07-.05-1.69-.06-2.23-.05-1.02.02-1.65.08-1.77.08-.15,0-.23-.05-.24-.11-.01-.09-.05-.23-.05-.27.7-.09,1.05-.23,1.16-.66.06-.23.15-.79.15-2.76v-3.1c0-2.03-.01-2.26-.5-2.43-.18-.06-.41-.11-.59-.12-.08-.02-.11-.03-.11-.09,0-.03.02-.11.05-.18.05-.06.08-.09.12-.09.12-.02.27-.02.52-.02.29,0,.69.05,1.76.03.7,0,1.51-.03,1.68-.03s.18.02.2.06l.09.27Z"/>
    <path class="cls-1" d="m265.89,57.22s.08.14,0,.32c-.2.66-.34,1.27-.44,1.88-.03.18-.11.23-.26.26-.14.02-.32.02-.95.02s-1.33-.05-3.97-.05c-.87,0-1.65.08-1.98.11-.11.02-.18.02-.2-.02-.03-.08-.08-.26-.05-.31.56-.17,1.04-.37,1.11-.82.06-.31.09-.72.09-2.15v-3.1c0-1.27-.06-2.09-.11-2.56-.03-.23-.15-.37-1.07-.47-.03-.02-.09-.08-.06-.17l.06-.18c.01-.06.03-.06.09-.06.52.02,1.07.03,1.65.02.9,0,1.8-.06,2.47-.09.05.02.11.29.09.37-.78.2-1.19.32-1.27.81-.06.47-.09,1.27-.08,2.61v2c.03,1.91.05,2.69.06,2.99.01.31.08.4.29.46.24.08.46.11,1.14.11,1.31,0,2.03-.14,2.46-.78.24-.31.35-.61.5-1.18.03-.09.05-.11.11-.11.08,0,.21.06.29.11Z"/>
    <path class="cls-1" d="m274.23,57.22s.08.14,0,.32c-.2.66-.34,1.27-.44,1.88-.03.18-.11.23-.26.26-.14.02-.32.02-.95.02s-1.33-.05-3.97-.05c-.87,0-1.65.08-1.98.11-.11.02-.18.02-.2-.02-.03-.08-.08-.26-.05-.31.56-.17,1.04-.37,1.11-.82.06-.31.09-.72.09-2.15v-3.1c0-1.27-.06-2.09-.11-2.56-.03-.23-.15-.37-1.07-.47-.03-.02-.09-.08-.06-.17l.06-.18c.01-.06.03-.06.09-.06.52.02,1.07.03,1.65.02.9,0,1.8-.06,2.47-.09.05.02.11.29.09.37-.78.2-1.19.32-1.27.81-.06.47-.09,1.27-.08,2.61v2c.03,1.91.05,2.69.06,2.99.01.31.08.4.29.46.24.08.46.11,1.14.11,1.31,0,2.03-.14,2.46-.78.24-.31.35-.61.5-1.18.03-.09.05-.11.11-.11.08,0,.21.06.29.11Z"/>
  </g>
  <g id="_レイヤー_3" data-name="レイヤー 3">
    <path class="cls-1" d="m291.67,17.86l-13.24,9.45,4.42-12.43,17.48-8.71-2.82,5.13c-1.43,2.6-3.42,4.84-5.84,6.56Z"/>
    <path class="cls-1" d="m290.33,24.29l-11.82,4.31,5.86-8.35,14.82-2.88-3.16,3.24c-1.6,1.64-3.55,2.9-5.7,3.68Z"/>
    <path class="cls-1" d="m287.35,28.86c-.06,0-.11-.02-.16-.05-.44-.22-2.71-1.35-3.6-1.5-.54-.09-1.55-.05-2.54.03-.53.04-.73-.68-.26-.92l3.9-1.99c.11-.06.24-.07.36-.03l10.06,3.06-3.06.98c-1.52.49-3.13.63-4.71.43Z"/>
  </g>
</svg>